:SAMPLES-PER-SECOND 30
:FULLY-SPECIFIED
:DEGREES
258
root  -15.3746 34.7581 -8.27685 -171.488 1.88896 179.458
RightUpLeg  -9.24764 -8.15841 1.15174
RightLeg  7.4731 1.76674 0.118145
RightFoot  3.18485 0.000403798 0.220264
RightToes  -24.6342 -0.114117 -0.217511
Spine  -2.39172 0.433888 -0.222087
Spine1  -4.84917 0.93874 0.189652
HEad  -64.6803 -1.78578 5.22623
LeftShoulder1  -1.94126e-019 -3.10601e-018 -2.51263e-017
LeftArm  -11.4407 26.3046 -82.6637
LeftForeArm  31.2867 -16.9396 -2.86894
LeftHand  -0.493131 -2.30088 7.68588
RightShoulder  -4.96962e-017 0 -2.36833e-017
RightArm  -24.8151 -22.8012 77.9804
RightForeArm  56.6216 12.7284 1.41013
RightHand  -0.492955 -0.757102 -12.3426
LeftUpLeg  -7.71369 -5.14833 -1.58006
LeftLeg  6.16979 14.0475 0.603408
LeftFoot  2.91679 -0.00237263 0.879963
LeftToes  -14.6265 1.31424e-006 1.14295e-007
259
root  -15.3837 34.7559 -8.29364 -171.384 1.76303 179.463
RightUpLeg  -9.23464 -8.40572 1.16674
RightLeg  7.30858 1.89637 0.121265
RightFoot  3.25286 -0.000159247 0.228408
RightToes  -24.5652 -0.114963 -0.218626
Spine  -2.38055 0.434796 -0.215213
Spine1  -4.827 0.923746 0.201274
HEad  -64.7063 -1.9204 5.20083
LeftShoulder1  -1.94126e-019 -3.10601e-018 -2.51263e-017
LeftArm  -11.3456 26.2639 -82.6188
LeftForeArm  31.356 -17.0512 -2.88766
LeftHand  -0.495211 -2.34464 7.64066
RightShoulder  -4.96962e-017 0 -2.36833e-017
RightArm  -24.7774 -22.819 77.9073
RightForeArm  56.6425 12.7613 1.40639
RightHand  -0.488591 -0.782122 -12.3501
LeftUpLeg  -7.729 -5.2138 -1.57652
LeftLeg  6.01909 13.9934 0.564646
LeftFoot  2.9556 -0.00189217 0.886261
LeftToes  -14.5931 1.31424e-006 1.14295e-007
260
root  -15.3905 34.7526 -8.32237 -171.263 1.67021 179.485
RightUpLeg  -9.20572 -8.50561 1.19676
RightLeg  7.11462 1.9063 0.115415
RightFoot  3.3242 -0.000271116 0.230455
RightToes  -24.4669 -0.115769 -0.219704
Spine  -2.39436 0.434517 -0.203779
Spine1  -4.85524 0.91648 0.221095
HEad  -64.4384 -2.00772 5.26727
LeftShoulder1  -1.94126e-019 -3.10601e-018 -2.51263e-017
LeftArm  -11.2107 26.2868 -82.5612
LeftForeArm  31.2933 -17.2237 -2.91156
LeftHand  -0.495166 -2.33699 7.66277
RightShoulder  -4.96962e-017 0 -2.36833e-017
RightArm  -24.8457 -22.8474 77.8501
RightForeArm  56.6266 12.733 1.40975
RightHand  -0.484492 -0.789941 -12.3797
LeftUpLeg  -7.7533 -5.16774 -1.55827
LeftLeg  5.89426 13.8741 0.529961
LeftFoot  2.96208 -0.000777334 0.881825
LeftToes  -14.4986 1.31424e-006 1.14295e-007
261
root  -15.3992 34.7511 -8.35867 -171.153 1.61023 179.514
RightUpLeg  -9.15946 -8.59926 1.22502
RightLeg  6.92677 1.93741 0.110905
RightFoot  3.38046 -0.000349202 0.232392
RightToes  -24.3309 -0.116526 -0.220737
Spine  -2.41179 0.433229 -0.195468
Spine1  -4.89035 0.927871 0.23569
HEad  -64.2256 -2.14139 5.35267
LeftShoulder1  -1.94126e-019 -3.10601e-018 -2.51263e-017
LeftArm  -11.2167 26.3025 -82.5246
LeftForeArm  31.1638 -17.3995 -2.93586
LeftHand  -0.494702 -2.26746 7.70242
RightShoulder  -4.96962e-017 0 -2.36833e-017
RightArm  -25.0427 -22.8789 77.8389
RightForeArm  56.6132 12.6944 1.41258
RightHand  -0.481664 -0.844462 -12.427
LeftUpLeg  -7.75714 -5.11976 -1.5368
LeftLeg  5.78255 13.76 0.499089
LeftFoot  2.96722 0.000398768 0.875463
LeftToes  -14.4426 1.31424e-006 1.14295e-007
262
root  -15.4087 34.75 -8.39523 -171.076 1.56461 179.542
RightUpLeg  -9.09109 -8.59474 1.24192
RightLeg  6.75965 1.88248 0.10228
RightFoot  3.43734 -0.000240284 0.232047
RightToes  -24.1588 -0.11723 -0.221713
Spine  -2.41142 0.431109 -0.189195
Spine1  -4.88971 0.931005 0.247441
HEad  -64.2959 -2.25342 5.53931
LeftShoulder1  -1.94126e-019 -3.10601e-018 -2.51263e-017
LeftArm  -11.248 26.2878 -82.4898
LeftForeArm  31.0385 -17.5873 -2.96368
LeftHand  -0.494324 -2.17548 7.74494
RightShoulder  -4.96962e-017 0 -2.36833e-017
RightArm  -25.2274 -22.8623 77.8655
RightForeArm  56.668 12.6554 1.41789
RightHand  -0.485165 -0.859114 -12.3939
LeftUpLeg  -7.76435 -5.18603 -1.51622
LeftLeg  5.75197 13.7754 0.49235
LeftFoot  2.95842 0.00118669 0.874062
LeftToes  -14.343 1.31424e-006 1.14295e-007
263
root  -15.4191 34.7483 -8.42589 -171.043 1.51703 179.565
RightUpLeg  -9.04827 -8.52448 1.24795
RightLeg  6.71723 1.75422 0.0940815
RightFoot  3.43515 0.000368679 0.22497
RightToes  -23.9726 -0.117873 -0.222625
Spine  -2.38995 0.428334 -0.187697
Spine1  -4.84742 0.93708 0.25029
HEad  -64.4429 -2.4121 5.70541
LeftShoulder1  -1.94126e-019 -3.10601e-018 -2.51263e-017
LeftArm  -11.2084 26.209 -82.4576
LeftForeArm  31.0468 -17.7014 -2.97971
LeftHand  -0.49783 -2.24422 7.69174
RightShoulder  -4.96962e-017 0 -2.36833e-017
RightArm  -25.2091 -22.8369 77.9235
RightForeArm  56.7143 12.6757 1.41521
RightHand  -0.494818 -0.778833 -12.4289
LeftUpLeg  -7.79614 -5.30309 -1.5044
LeftLeg  5.84211 13.843 0.516307
LeftFoot  2.92854 0.00203461 0.870556
LeftToes  -14.2705 1.31424e-006 1.14295e-007
264
root  -15.4325 34.7467 -8.45498 -171.026 1.4539 179.585
RightUpLeg  -9.00899 -8.46654 1.24423
RightLeg  6.71204 1.60365 0.0859539
RightFoot  3.37628 0.00118427 0.215373
RightToes  -23.5803 -0.11845 -0.223462
Spine  -2.35836 0.422794 -0.187247
Spine1  -4.78518 0.927565 0.24995
HEad  -64.5732 -2.6054 5.88538
LeftShoulder1  -1.94126e-019 -3.10601e-018 -2.51263e-017
LeftArm  -11.1434 26.0858 -82.4339
LeftForeArm  31.0922 -17.7588 -2.98751
LeftHand  -0.50023 -2.26226 7.65906
RightShoulder  -4.96962e-017 0 -2.36833e-017
RightArm  -25.197 -22.7791 78.0198
RightForeArm  56.699 12.7174 1.41069
RightHand  -0.499311 -0.724771 -12.4019
LeftUpLeg  -7.85148 -5.47314 -1.50294
LeftLeg  6.0021 13.9478 0.558743
LeftFoot  2.84454 0.00352982 0.855716
LeftToes  -14.0404 1.31424e-006 1.14295e-007
265
root  -15.4464 34.7465 -8.48428 -170.986 1.39073 179.596
RightUpLeg  -8.97303 -8.42784 1.23532
RightLeg  6.67097 1.50978 0.0798994
RightFoot  3.36304 0.00170392 0.210457
RightToes  -23.5029 -0.118955 -0.224215
Spine  -2.32744 0.409523 -0.184691
Spine1  -4.72381 0.902657 0.249493
HEad  -64.7232 -2.71608 5.9371
LeftShoulder1  -1.94126e-019 -3.10601e-018 -2.51263e-017
LeftArm  -11.1119 25.939 -82.4262
LeftForeArm  31.1351 -17.7854 -2.99298
LeftHand  -0.49991 -2.21164 7.70134
RightShoulder  -4.96962e-017 0 -2.36833e-017
RightArm  -25.228 -22.6925 78.1471
RightForeArm  56.6265 12.7611 1.40636
RightHand  -0.500485 -0.718228 -12.4143
LeftUpLeg  -7.87785 -5.55326 -1.51322
LeftLeg  6.05631 13.9766 0.572979
LeftFoot  2.79104 0.00471226 0.844367
LeftToes  -13.892 1.31424e-006 1.14295e-007
266
root  -15.4606 34.7459 -8.5129 -170.928 1.36717 179.609
RightUpLeg  -8.95924 -8.45268 1.2265
RightLeg  6.62645 1.51865 0.0791777
RightFoot  3.36363 0.0020154 0.208989
RightToes  -23.5631 -0.11938 -0.224875
Spine  -2.30448 0.408375 -0.181265
Spine1  -4.67809 0.902698 0.261898
HEad  -64.8236 -2.74435 5.91341
LeftShoulder1  -1.94126e-019 -3.10601e-018 -2.51263e-017
LeftArm  -11.1339 25.7752 -82.4456
LeftForeArm  31.1438 -17.7742 -2.99632
LeftHand  -0.500982 -2.21593 7.67668
RightShoulder  -4.96962e-017 0 -2.36833e-017
RightArm  -25.1734 -22.6074 78.2611
RightForeArm  56.5294 12.8329 1.399
RightHand  -0.502423 -0.646557 -12.2811
LeftUpLeg  -7.87648 -5.50729 -1.52588
LeftLeg  6.02485 13.9123 0.562821
LeftFoot  2.7401 0.00606709 0.828866
LeftToes  -13.781 1.31424e-006 1.14295e-007
267
root  -15.4732 34.7429 -8.53954 -170.873 1.36595 179.623
RightUpLeg  -8.97595 -8.43858 1.22094
RightLeg  6.63781 1.50334 0.0786897
RightFoot  3.31256 0.00226547 0.208892
RightToes  -23.5958 -0.11972 -0.225433
Spine  -2.28532 0.415431 -0.178744
Spine1  -4.64055 0.919513 0.266594
HEad  -64.8805 -2.70922 5.91281
LeftShoulder1  -1.94126e-019 -3.10601e-018 -2.51263e-017
LeftArm  -11.1823 25.6454 -82.4466
LeftForeArm  31.197 -17.8607 -3.01015
LeftHand  -0.502621 -2.2876 7.61746
RightShoulder  -4.96962e-017 0 -2.36833e-017
RightArm  -25.1231 -22.5244 78.4059
RightForeArm  56.695 12.8878 1.39128
RightHand  -0.512916 -0.581039 -12.3731
LeftUpLeg  -7.87122 -5.48106 -1.53148
LeftLeg  5.99241 13.8774 0.553644
LeftFoot  2.69249 0.00716792 0.815743
LeftToes  -13.7703 1.31424e-006 1.14295e-007
268
root  -15.4887 34.7403 -8.56647 -170.779 1.37534 179.635
RightUpLeg  -9.02224 -8.57559 1.21791
RightLeg  6.61586 1.64836 0.0855422
RightFoot  3.33778 0.00248554 0.209738
RightToes  -23.9969 -0.119968 -0.225879
Spine  -2.26772 0.425481 -0.178904
Spine1  -4.60562 0.941768 0.268971
HEad  -64.8352 -2.60065 5.80334
LeftShoulder1  -1.94126e-019 -3.10601e-018 -2.51263e-017
LeftArm  -11.2354 25.5429 -82.456
LeftForeArm  31.1265 -18.0249 -3.03171
LeftHand  -0.499323 -2.27892 7.69587
RightShoulder  -4.96962e-017 0 -2.36833e-017
RightArm  -25.08 -22.4288 78.5493
RightForeArm  56.5404 12.966 1.3834
RightHand  -0.511529 -0.605902 -12.4014
LeftUpLeg  -7.84832 -5.39363 -1.54117
LeftLeg  5.84175 13.7955 0.514479
LeftFoot  2.69909 0.00744877 0.813695
LeftToes  -13.8021 1.31424e-006 1.14295e-007
269
root  -15.5036 34.7392 -8.58966 -170.655 1.35611 179.639
RightUpLeg  -9.08658 -8.56946 1.20848
RightLeg  6.57911 1.63014 0.0835591
RightFoot  3.3168 0.00270702 0.211098
RightToes  -24.1087 -0.120118 -0.226203
Spine  -2.22632 0.425512 -0.185175
Spine1  -4.52272 0.943254 0.258222
HEad  -64.8974 -2.51789 5.69739
LeftShoulder1  -1.94126e-019 -3.10601e-018 -2.51263e-017
LeftArm  -11.1769 25.4511 -82.4299
LeftForeArm  30.8786 -18.3767 -3.07885
LeftHand  -0.498144 -2.26975 7.61093
RightShoulder  -4.96962e-017 0 -2.36833e-017
RightArm  -24.9436 -22.3453 78.7102
RightForeArm  56.1252 13.1607 1.36368
RightHand  -0.510579 -0.617181 -12.4065
LeftUpLeg  -7.86281 -5.34728 -1.55561
LeftLeg  5.68954 13.7432 0.476381
LeftFoot  2.70113 0.00759179 0.81202
LeftToes  -13.7891 1.31424e-006 1.14295e-007
270
root  -15.5196 34.7386 -8.60657 -170.482 1.3685 179.627
RightUpLeg  -9.25071 -8.6052 1.19292
RightLeg  6.61767 1.69272 0.0878687
RightFoot  3.21427 0.00296134 0.212544
RightToes  -24.1467 -0.120165 -0.226396
Spine  -2.23015 0.444214 -0.201555
Spine1  -4.52963 0.981106 0.227725
HEad  -64.8189 -2.49311 5.55882
LeftShoulder1  -1.94126e-019 -3.10601e-018 -2.51263e-017
LeftArm  -10.8848 25.4003 -82.3731
LeftForeArm  30.6455 -18.6196 -3.11591
LeftHand  -0.492978 -2.29512 7.65264
RightShoulder  -4.96962e-017 0 -2.36833e-017
RightArm  -24.5976 -22.3589 78.8416
RightForeArm  55.7317 13.3518 1.34398
RightHand  -0.508727 -0.604264 -12.3294
LeftUpLeg  -7.92465 -5.36583 -1.58024
LeftLeg  5.52525 13.7595 0.437839
LeftFoot  2.68732 0.00764333 0.809897
LeftToes  -13.6834 1.31424e-006 1.14295e-007
